{"title":"Burning Bright [2010] BDRip XviD DAYN-D3MT","uid":6311170,"size":779531886,"categoryP":"video","categoryS":"other","magnet":"?xt=urn:btih:3976041817aa2bc222d3c7f07f30faa6289bf97e&amp;dn=Burning+Bright+%5B2010%5D+BDRip+XviD+DAYN-D3MT&amp;tr=udp%3A%2F%2Ftracker.openbittorrent.com%3A80&amp;tr=udp%3A%2F%2Fopen.demonii.com%3A1337&amp;tr=udp%3A%2F%2Ftracker.coppersurfer.tk%3A6969&amp;tr=udp%3A%2F%2Fexodus.desync.com%3A6969","seeders":0,"leechers":0,"uploader":"arihantkatariya","files":2,"time":1302540618,"description":"\n[quote]Format : AVI\nFormat/Info : Audio Video Interleave\nFile size : 710 MiB\nDuration : 1h 29mn\nOverall bit rate : 1 111 Kbps\nWriting application : Lavf52.39.1\n\nVideo\nID : 0\nFormat : MPEG-4 Visual\nFormat settings, BVOP : 1\nFormat settings, QPel : No\nFormat settings, GMC : No warppoints\nFormat settings, Matrix : Default (H.263)\nMuxing mode : Packed bitstream\nCodec ID : DX50\nCodec ID/Hint : DivX 5\nDuration : 1h 29mn\nBit rate : 1 034 Kbps\nWidth : 624 pixels\nHeight : 272 pixels\nDisplay aspect ratio : 2.25:1\nFrame rate : 23.976 fps\nColor space : YUV\nChroma subsampling : 4:2:0\nBit depth : 8 bits\nScan type : Progressive\nCompression mode : Lossy\nBits/(Pixel*Frame) : 0.254\nStream size : 661 MiB (93%)\nWriting library : DivX 6.8.5 (UTC 2009-08-20)\n\nAudio\nID : 1\nFormat : MPEG Audio\nFormat version : Version 1\nFormat profile : Layer 2\nCodec ID : 50\nDuration : 1h 29mn\nBit rate mode : Constant\nBit rate : 64.0 Kbps\nChannel(s) : 2 channels\nSampling rate : 48.0 KHz\nCompression mode : Lossy\nStream size : 40.9 MiB (6%)\nAlignment : Aligned on interleaves\nInterleave, duration : 24 ms (0.58 video frame) [/quote]","torrent":{"xt":"urn:btih:3976041817aa2bc222d3c7f07f30faa6289bf97e","amp;dn":"Burning+Bright+%5B2010%5D+BDRip+XviD+DAYN-D3MT","amp;tr":["udp%3A%2F%2Ftracker.openbittorrent.com%3A80","udp%3A%2F%2Fopen.demonii.com%3A1337","udp%3A%2F%2Ftracker.coppersurfer.tk%3A6969","udp%3A%2F%2Fexodus.desync.com%3A6969"],"infoHash":"3976041817aa2bc222d3c7f07f30faa6289bf97e","infoHashBuffer":{"type":"Buffer","data":[57,118,4,24,23,170,43,194,34,211,199,240,127,48,250,166,40,155,249,126]},"announce":[],"urlList":[]}}